<svg xmlns="http://www.w3.org/2000/svg" viewBox="0 -0.5 130 53" shape-rendering="crispEdges">
<metadata>Made with Pixels to Svg https://codepen.io/shshaw/pen/XbxvNj</metadata>
<path stroke="#fff1e8" d="M2 0h32M44 0h7M58 0h11M74 0h6M87 0h11M102 0h13M120 0h8M2 1h32M43 1h1M51 1h2M57 1h1M69 1h1M73 1h1M80 1h2M86 1h1M98 1h1M101 1h1M115 1h1M119 1h1M127 1h2M0 2h2M34 2h4M0 3h2M34 3h4M53 3h1M82 3h1M129 3h1M38 6h2M38 7h2M6 18h28M6 19h28M46 21h1M47 22h4M76 22h4M51 23h2M53 25h1M6 43h2M6 44h2M8 45h26M101 45h3M113 45h3M8 46h26M43 46h3M127 46h3M46 48h1M50 48h1M122 48h1M126 48h1M47 49h3M59 49h3M65 49h3M88 49h3M94 49h3M104 49h3M110 49h3M123 49h3" />
<path stroke="#83769c" d="M44 1h7M74 1h6M102 1h13M43 2h10M73 2h9M101 2h15M43 3h10M73 3h9M101 3h15M43 4h3M50 4h4M73 4h3M79 4h4M101 4h3M107 4h3M113 4h3M43 5h3M51 5h3M73 5h3M80 5h3M101 5h3M107 5h3M113 5h3M43 6h3M51 6h3M73 6h3M80 6h3M101 6h3M107 6h3M113 6h3M43 7h3M73 7h3M80 7h3M101 7h3M107 7h3M113 7h3M43 8h3M73 8h3M80 8h3M107 8h3M43 9h3M73 9h3M80 9h3M107 9h3M43 10h3M73 10h3M80 10h3M107 10h3M43 11h3M73 11h3M80 11h3M107 11h3M43 12h3M73 12h3M80 12h3M107 12h3M43 13h3M73 13h3M80 13h3M107 13h3M43 14h3M73 14h3M80 14h3M107 14h3M43 15h3M73 15h3M80 15h3M107 15h3M43 16h3M73 16h3M80 16h3M107 16h3M43 17h3M73 17h3M80 17h3M107 17h3M43 18h3M73 18h3M80 18h3M107 18h3M43 19h3M73 19h3M80 19h3M107 19h3M43 20h3M73 20h3M80 20h3M107 20h3M43 21h3M73 21h3M80 21h3M107 21h3M43 22h4M73 22h3M80 22h3M107 22h3M44 23h7M73 23h10M107 23h3M44 24h9M73 24h10M107 24h3M46 25h7M73 25h10M107 25h3M50 26h4M73 26h3M80 26h3M107 26h3M51 27h3M73 27h3M80 27h3M107 27h3M51 28h3M73 28h3M80 28h3M107 28h3M51 29h3M73 29h3M80 29h3M107 29h3M51 30h3M73 30h3M80 30h3M107 30h3M51 31h3M73 31h3M80 31h3M107 31h3M51 32h3M73 32h3M80 32h3M107 32h3M51 33h3M73 33h3M80 33h3M107 33h3M51 34h3M73 34h3M80 34h3M107 34h3M51 35h3M73 35h3M80 35h3M107 35h3M51 36h3M73 36h3M80 36h3M107 36h3M51 37h3M73 37h3M80 37h3M107 37h3M51 38h3M73 38h3M80 38h3M107 38h3M51 39h3M73 39h3M80 39h3M107 39h3M51 40h3M73 40h3M80 40h3M107 40h3M51 41h3M73 41h3M80 41h3M107 41h3M51 42h3M73 42h3M80 42h3M107 42h3M51 43h3M73 43h3M80 43h3M107 43h3M51 44h3M73 44h3M80 44h3M107 44h3M51 45h3M73 45h3M80 45h3M107 45h3M51 46h3M73 46h3M80 46h3M101 46h3M107 46h3M113 46h3M43 47h3M51 47h3M73 47h3M80 47h3M101 47h3M107 47h3M113 47h3M43 48h3M51 48h3M73 48h3M80 48h3M101 48h3M107 48h3M113 48h3M43 49h4M50 49h4M73 49h3M80 49h3M101 49h3M107 49h3M113 49h3M44 50h10M73 50h3M80 50h3M101 50h15M44 51h10M73 51h3M80 51h3M101 51h15M46 52h7M74 52h2M80 52h2M102 52h13" />
<path stroke="#29adff" d="M58 1h11M87 1h11M57 2h13M86 2h13M57 3h13M86 3h13M57 4h2M62 4h3M68 4h2M86 4h2M91 4h3M97 4h2M62 5h3M91 5h3M62 6h3M91 6h3M62 7h3M91 7h3M62 8h3M91 8h3M62 9h3M91 9h3M62 10h3M91 10h3M62 11h3M91 11h3M62 12h3M91 12h3M62 13h3M91 13h3M62 14h3M91 14h3M62 15h3M91 15h3M62 16h3M91 16h3M62 17h3M91 17h3M62 18h3M91 18h3M62 19h3M91 19h3M62 20h3M91 20h3M62 21h3M91 21h3M62 22h3M91 22h3M62 23h3M91 23h3M62 24h3M91 24h3M62 25h3M91 25h3M62 26h3M91 26h3M62 27h3M91 27h3M62 28h3M91 28h3M62 29h3M91 29h3M62 30h3M91 30h3M62 31h3M91 31h3M62 32h3M91 32h3M62 33h3M91 33h3M62 34h3M91 34h3M62 35h3M91 35h3M62 36h3M91 36h3M62 37h3M91 37h3M62 38h3M91 38h3M62 39h3M91 39h3M62 40h3M91 40h3M62 41h3M91 41h3M62 42h3M91 42h3M62 43h3M91 43h3M62 44h3M91 44h3M62 45h3M91 45h3M62 46h3M91 46h3M62 47h3M91 47h3M62 48h3M91 48h3M62 49h3M91 49h3M59 50h9M88 50h9M59 51h9M88 51h9M60 52h7M89 52h7" />
<path stroke="#ff77a8" d="M120 1h7M2 2h32M119 2h10M2 3h32M119 3h10M0 4h38M119 4h3M126 4h4M0 5h38M119 5h3M127 5h3M0 6h38M119 6h3M127 6h3M0 7h38M119 7h3M0 8h6M32 8h8M119 8h3M0 9h6M32 9h8M119 9h3M0 10h6M34 10h6M119 10h3M0 11h6M34 11h6M119 11h3M0 12h6M34 12h6M119 12h3M0 13h6M34 13h6M119 13h3M0 14h6M34 14h6M119 14h3M0 15h6M34 15h6M119 15h3M0 16h6M34 16h6M119 16h3M0 17h6M34 17h6M119 17h3M0 18h6M34 18h6M119 18h3M0 19h6M34 19h6M119 19h3M0 20h40M119 20h3M0 21h40M119 21h3M0 22h40M119 22h3M0 23h40M119 23h3M0 24h40M119 24h3M0 25h40M119 25h3M0 26h6M34 26h6M119 26h3M0 27h6M34 27h6M119 27h3M0 28h6M34 28h6M119 28h3M0 29h6M34 29h6M119 29h3M0 30h6M34 30h6M119 30h3M0 31h6M34 31h6M119 31h3M0 32h6M34 32h6M119 32h3M0 33h6M34 33h6M119 33h3M0 34h6M34 34h6M119 34h3M0 35h6M34 35h6M119 35h3M0 36h6M34 36h6M119 36h3M0 37h6M34 37h6M119 37h3M0 38h6M34 38h6M119 38h3M0 39h6M34 39h6M119 39h3M0 40h6M34 40h6M119 40h3M0 41h6M34 41h6M119 41h3M0 42h6M34 42h6M119 42h3M0 43h6M34 43h6M119 43h3M0 44h6M34 44h6M119 44h3M0 45h8M34 45h6M119 45h3M0 46h8M34 46h6M119 46h3M2 47h38M119 47h3M127 47h3M2 48h38M119 48h3M127 48h3M2 49h38M119 49h4M126 49h4M2 50h38M120 50h10M6 51h32M120 51h10M6 52h32M122 52h7" />
</svg>