<svg xmlns="http://www.w3.org/2000/svg" viewBox="0 -0.5 129 53" shape-rendering="crispEdges">
<metadata>Made with Pixels to Svg https://codepen.io/shshaw/pen/XbxvNj</metadata>
<path stroke="#fff1e8" d="M2 0h40M52 0h20M79 0h22M106 0h20M2 1h40M51 1h1M72 1h2M78 1h1M101 1h1M105 1h1M126 1h2M0 2h2M42 2h4M0 3h2M42 3h4M74 3h1M128 3h1M46 6h2M46 7h2M54 8h1M55 9h17M108 9h18M72 10h2M74 12h1M6 18h36M51 18h3M6 19h36M54 20h1M71 20h1M55 21h16M81 21h3M87 21h6M96 21h3M52 28h22M79 28h22M106 28h20M51 29h1M74 29h1M78 29h1M101 29h1M105 29h1M126 29h2M128 31h1M6 43h2M6 44h2M8 45h34M78 45h3M99 45h3M8 46h34M126 46h3M108 48h1M125 48h1M54 49h3M60 49h6M69 49h3M81 49h3M87 49h6M96 49h3M109 49h16" />
<path stroke="#83769c" d="M52 1h20M106 1h20M51 2h23M105 2h23M51 3h23M105 3h23M51 4h3M71 4h4M105 4h3M125 4h4M51 5h3M72 5h3M105 5h3M126 5h3M51 6h3M72 6h3M105 6h3M126 6h3M51 7h3M105 7h3M126 7h3M51 8h3M105 8h3M126 8h3M51 9h4M105 9h3M126 9h3M52 10h20M105 10h24M52 11h22M105 11h24M54 12h20M105 12h24M71 13h4M105 13h3M126 13h3M72 14h3M105 14h3M126 14h3M72 15h3M105 15h3M126 15h3M72 16h3M105 16h3M126 16h3M72 17h3M105 17h3M126 17h3M72 18h3M105 18h3M126 18h3M51 19h3M72 19h3M105 19h3M126 19h3M51 20h3M72 20h3M105 20h3M126 20h3M51 21h4M71 21h4M105 21h3M126 21h3M52 22h23M105 22h3M126 22h3M52 23h23M105 23h3M126 23h3M54 24h20M106 24h2M126 24h2M79 29h22M78 30h24M78 31h24M78 32h3M84 32h3M93 32h3M99 32h3M78 33h3M84 33h3M93 33h3M99 33h3M78 34h3M84 34h3M93 34h3M99 34h3M78 35h3M84 35h3M93 35h3M99 35h3M84 36h3M93 36h3M84 37h3M93 37h3M84 38h3M93 38h3M84 39h3M93 39h3M84 40h3M93 40h3M84 41h3M93 41h3M84 42h3M93 42h3M84 43h3M93 43h3M84 44h3M93 44h3M84 45h3M93 45h3M78 46h3M84 46h3M93 46h3M99 46h3M78 47h3M84 47h3M93 47h3M99 47h3M78 48h3M84 48h3M93 48h3M99 48h3M78 49h3M84 49h3M93 49h3M99 49h3M78 50h24M78 51h24M79 52h22" />
<path stroke="#29adff" d="M79 1h22M78 2h24M78 3h24M78 4h3M84 4h3M93 4h3M99 4h3M84 5h3M93 5h3M84 6h3M93 6h3M84 7h3M93 7h3M84 8h3M93 8h3M84 9h3M93 9h3M84 10h3M93 10h3M84 11h3M93 11h3M84 12h3M93 12h3M84 13h3M93 13h3M84 14h3M93 14h3M84 15h3M93 15h3M84 16h3M93 16h3M84 17h3M93 17h3M84 18h3M93 18h3M84 19h3M93 19h3M84 20h3M93 20h3M84 21h3M93 21h3M81 22h18M81 23h18M82 24h16M52 29h22M51 30h24M51 31h24M51 32h3M57 32h3M66 32h3M72 32h3M57 33h3M66 33h3M57 34h3M66 34h3M57 35h3M66 35h3M57 36h3M66 36h3M57 37h3M66 37h3M57 38h3M66 38h3M57 39h3M66 39h3M57 40h3M66 40h3M57 41h3M66 41h3M57 42h3M66 42h3M57 43h3M66 43h3M57 44h3M66 44h3M57 45h3M66 45h3M57 46h3M66 46h3M57 47h3M66 47h3M57 48h3M66 48h3M57 49h3M66 49h3M54 50h18M54 51h18M55 52h16" />
<path stroke="#ff77a8" d="M2 2h40M2 3h40M0 4h46M0 5h46M0 6h46M0 7h46M0 8h6M40 8h8M0 9h6M40 9h8M0 10h6M42 10h6M0 11h6M42 11h6M0 12h6M42 12h6M0 13h6M42 13h6M0 14h6M42 14h6M0 15h6M42 15h6M0 16h6M42 16h6M0 17h6M42 17h6M0 18h6M42 18h6M0 19h6M42 19h6M0 20h48M0 21h48M0 22h48M0 23h48M0 24h48M0 25h48M0 26h6M42 26h6M0 27h6M42 27h6M0 28h6M42 28h6M0 29h6M42 29h6M106 29h20M0 30h6M42 30h6M105 30h23M0 31h6M42 31h6M105 31h23M0 32h6M42 32h6M105 32h3M125 32h4M0 33h6M42 33h6M105 33h3M126 33h3M0 34h6M42 34h6M105 34h3M126 34h3M0 35h6M42 35h6M105 35h3M0 36h6M42 36h6M105 36h3M0 37h6M42 37h6M105 37h3M0 38h6M42 38h6M105 38h3M0 39h6M42 39h6M105 39h3M0 40h6M42 40h6M105 40h3M0 41h6M42 41h6M105 41h3M0 42h6M42 42h6M105 42h3M0 43h6M42 43h6M105 43h3M0 44h6M42 44h6M105 44h3M0 45h8M42 45h6M105 45h3M0 46h8M42 46h6M105 46h3M2 47h46M105 47h3M126 47h3M2 48h46M105 48h3M126 48h3M2 49h46M105 49h4M125 49h4M2 50h46M106 50h23M6 51h40M106 51h23M6 52h40M108 52h20" />
</svg>