<?xml version="1.0" encoding="UTF-8" standalone="no"?>
<svg
   width="600"
   height="535"
   version="1.1"
   id="svg1"
   sodipodi:docname="bsky-logo-pink.svg"
   inkscape:version="1.3.2 (091e20e, 2023-11-25)"
   xmlns:inkscape="http://www.inkscape.org/namespaces/inkscape"
   xmlns:sodipodi="http://sodipodi.sourceforge.net/DTD/sodipodi-0.dtd"
   xmlns="http://www.w3.org/2000/svg"
   xmlns:svg="http://www.w3.org/2000/svg">
  <defs
     id="defs1" />
  <sodipodi:namedview
     id="namedview1"
     pagecolor="#ffffff"
     bordercolor="#000000"
     borderopacity="0.25"
     inkscape:showpageshadow="2"
     inkscape:pageopacity="0.0"
     inkscape:pagecheckerboard="0"
     inkscape:deskcolor="#d1d1d1"
     showgrid="false"
     inkscape:zoom="0.4411215"
     inkscape:cx="299.23728"
     inkscape:cy="266.36652"
     inkscape:window-width="1352"
     inkscape:window-height="732"
     inkscape:window-x="0"
     inkscape:window-y="465"
     inkscape:window-maximized="0"
     inkscape:current-layer="svg1" />
  <path
     d="M 299.75,238.48 C 273.424,187.473 202.014,92.2 135.54,45.31 71.863,0.391 47.512,8.124 31.72,15.364 13.292,23.7555 10.001,52.056 10.001,68.675 c 0,16.619 9.0496,136.57 15.138,156.48 19.745,66.145 89.674,88.522 154.17,81.282 3.2908,-0.49362 6.5816,-0.98723 10.037,-1.3163 -3.2908,0.49362 -6.7461,0.98723 -10.037,1.3163 -94.445,13.986 -178.52,48.374 -68.284,170.96 121.1,125.38 166.02,-26.82 189.06,-104.15 23.035,77.169 49.526,223.94 186.75,104.15 103.17,-104.15 28.301,-156.97 -66.145,-170.96 -3.2908,-0.32908 -6.7461,-0.82269 -10.037,-1.3163 3.4553,0.49362 6.7461,0.82269 10.037,1.3163 64.499,7.2397 134.59,-15.138 154.17,-81.282 5.9234,-20.074 15.138,-139.86 15.138,-156.48 0,-16.62 -3.2908,-44.919 -21.719,-53.311 -15.96,-7.2397 -40.148,-14.973 -103.82,29.946 -66.967,47.058 -138.38,142.16 -164.7,193.17 z"
     fill="#1185fe"
     id="path1"
     style="fill:#ff6ca9;fill-opacity:1" />
</svg>
